<svg xmlns="http://www.w3.org/2000/svg" viewBox="0 0 64 64" role="img" aria-label="Strait of Hormuz">
  <rect width="64" height="64" rx="14" fill="#0A0E1A"/>
  <!-- Gulf + Oman Sea (teal) -->
  <path fill="#00B4CC" fill-opacity="0.35" d="M8 40c4-8 10-14 18-16 6-2 12 0 16 4l6 8c2 4 2 10-2 14-4 6-12 8-20 6-8-2-14-8-18-16z"/>
  <!-- Iran coast / north shore -->
  <path fill="#1a2338" d="M44 8 L58 10 56 28 48 32 40 28 38 14z"/>
  <!-- Oman / south shore -->
  <path fill="#1a2338" d="M12 36 L28 30 34 38 30 52 14 56 8 48z"/>
  <!-- Strait channel (highlight) -->
  <path fill="none" stroke="#00B4CC" stroke-width="3" stroke-linecap="round" d="M34 28c6 2 10 8 12 16"/>
  <circle cx="40" cy="30" r="3" fill="#C9A84C"/>
  <!-- Subtle lane ticks -->
  <path fill="none" stroke="#00B4CC" stroke-opacity="0.5" stroke-width="1" stroke-dasharray="2 3" d="M32 34l8 4"/>
</svg>
